<svg id="Objet_dynamique_vectoriel_Image" data-name="Objet dynamique vectoriel Image" xmlns="http://www.w3.org/2000/svg" xmlns:xlink="http://www.w3.org/1999/xlink" viewBox="0 0 542.77 399.74"><defs><style>.cls-1{fill:url(#radial-gradient);}.cls-2{font-size:79.35px;font-family:BlairITC-Medium, Blair ITC;letter-spacing:-0.01em;}.cls-2,.cls-8{fill:#1a171b;}.cls-3{letter-spacing:0.01em;}.cls-4{letter-spacing:0.03em;}.cls-5{letter-spacing:0.05em;}.cls-6{letter-spacing:0.03em;}.cls-7{letter-spacing:0.09em;}.cls-8{font-size:41.08px;font-family:LeanOSansFY-Bold, LeanOSans FY;}.cls-9{font-weight:700;}.cls-10{font-family:LeanOSansFY-Regular, LeanOSans FY;letter-spacing:0em;}</style><radialGradient id="radial-gradient" cx="271.36" cy="114.19" r="149.4" gradientUnits="userSpaceOnUse"><stop offset="0" stop-color="#8ed3f1"/><stop offset="0.05" stop-color="#80cff0"/><stop offset="0.18" stop-color="#59c5ec"/><stop offset="0.26" stop-color="#4ac1eb"/><stop offset="0.57" stop-color="#1e75b1"/><stop offset="0.77" stop-color="#004289"/><stop offset="0.8" stop-color="#125597"/><stop offset="0.86" stop-color="#4188bc"/><stop offset="0.94" stop-color="#84d0f0"/></radialGradient></defs><title>systran-logo-portrait</title><path class="cls-1" d="M137.11,121.29c0,3.45.19,6.85.47,10.25,10.68,8.37,31.13,12.84,63.24,16.4A671,671,0,0,0,306.2,151.1c15.55-.68,24.54-1.37,25.5-.06,2.27,3.21-14.75,15.54-47.1,34.59-37.35,22-53.63,24.65-55.84,20.67-3.57-6.47,8.35-24.45,5.83-27.33s-13.26-.75-43.37-5.68a205.94,205.94,0,0,1-47.9-14,120,120,0,0,0,113.87,81.57c66.31,0,120.08-53.49,120.08-119.51,0-3.66-.23-7.25-.55-10.81-5.09-8.27-31.2-13.43-63.28-17a633.86,633.86,0,0,0-105.05-2.62c-15.92.82-25,1.69-25.52.37-1.33-3.16,6.48-12.6,46.35-35.36,37.31-21.3,54.1-24.74,56.28-20.79,3.6,6.45-8.24,25.09-5.72,28s13.26.7,43.35,5.7A202.86,202.86,0,0,1,370.77,82.7,120,120,0,0,0,257.19,1.75c-66.31,0-120.08,53.53-120.08,119.54" transform="translate(2.99 -1.75)"/><text class="cls-2" transform="translate(0 336.91)">S<tspan class="cls-3" x="73.48" y="0">Y</tspan><tspan x="147.2" y="0">S</tspan><tspan class="cls-4" x="220.68" y="0">T</tspan><tspan class="cls-5" x="290.43" y="0">R</tspan><tspan class="cls-6" x="374.15" y="0">A</tspan><tspan class="cls-7" x="451.44" y="0">N</tspan></text><text class="cls-8" transform="translate(218.32 388.4)"><tspan class="cls-9">beyond</tspan><tspan class="cls-10" x="138.51" y="0" xml:space="preserve"> language</tspan></text></svg>